<?xml version="1.0" encoding="iso-8859-1"?>
<!-- Generator: Adobe Illustrator 19.0.0, SVG Export Plug-In . SVG Version: 6.00 Build 0)  -->
<svg version="1.1" id="Capa_1" xmlns="http://www.w3.org/2000/svg" xmlns:xlink="http://www.w3.org/1999/xlink" x="0px" y="0px"
	 viewBox="0 0 512 512" style="enable-background:new 0 0 512 512;" xml:space="preserve">
<path style="fill:#A5C6E3;" d="M0,270v61c0,33.084,26.916,60,60,60l60-90.5L60,210C26.916,210,0,236.916,0,270z"/>
<polygon style="fill:#092339;" points="180.5,251 60,331 60,391 180.5,391 "/>
<path style="fill:#FD5F6E;" d="M366,225V89.961L181.39,14.76C124.58,38.23,81.13,87.66,65.9,148.17l-0.391,1.559
	C61.917,164.566,60,180.058,60,196v29H366z"/>
<path style="fill:#FF2796;" d="M509.3,400.04c1.79,7.15,2.7,14.54,2.7,21.96c0,49.63-40.37,90-90,90H256V252.14L315.33,180
	c-73.67,0-134.57-82.6-133.94-133.95V14.76C204.4,5.25,229.6,0,256,0c91.58,0,168.7,63.14,190.1,148.17L509.3,400.04z"/>
<path style="fill:#FCD999;" d="M422,317.54C422,408.23,347.53,482,256,482l-80-182.333L256,180h166V317.54z"/>
<path style="fill:#FEECCC;" d="M256,180v302c-91.53,0-166-74.47-166-166V196c0-31.74,8.96-61.43,24.48-86.67
	c6,13.43,15.07,26.79,26.29,38.15c20.72,20.97,45.79,32.52,70.62,32.52L256,180L256,180z"/>
<polygon style="fill:#F9B233;" points="256,362 235.78,377 256,392 302,392 302,362 "/>
<rect x="210" y="362" style="fill:#FBC566;" width="46" height="30"/>
<rect x="316.5" y="240.5" style="fill:#092339;" width="30" height="60"/>
<path style="fill:#1D71B8;" d="M180.5,331H60V210h120.5V331z"/>
<path style="fill:#4A8DC6;" d="M180.5,331c-33.36,0-60.5-27.14-60.5-60.5s27.14-60.5,60.5-60.5s60.5,27.14,60.5,60.5
	S213.86,331,180.5,331z"/>
<g>
</g>
<g>
</g>
<g>
</g>
<g>
</g>
<g>
</g>
<g>
</g>
<g>
</g>
<g>
</g>
<g>
</g>
<g>
</g>
<g>
</g>
<g>
</g>
<g>
</g>
<g>
</g>
<g>
</g>
</svg>
